<mxfile host="app.diagrams.net" modified="2024-01-11T14:08:19.499Z" agent="Mozilla/5.0 (Windows NT 10.0; Win64; x64) AppleWebKit/537.36 (KHTML, like Gecko) Chrome/120.0.0.0 Safari/537.36" etag="Z6PLIygB5g0rPYuBDO68" version="22.1.18" type="device">
  <diagram name="Page-1" id="p5wULG9aZNoFwc17AjxW">
    <mxGraphModel dx="975" dy="799" grid="1" gridSize="10" guides="1" tooltips="1" connect="1" arrows="1" fold="1" page="1" pageScale="1" pageWidth="850" pageHeight="1100" math="0" shadow="0">
      <root>
        <mxCell id="0" />
        <mxCell id="1" parent="0" />
        <mxCell id="i-aHLIUqa0NCSRjYnD6V-13" style="edgeStyle=orthogonalEdgeStyle;rounded=0;orthogonalLoop=1;jettySize=auto;html=1;exitX=0;exitY=1;exitDx=0;exitDy=0;entryX=0.75;entryY=0;entryDx=0;entryDy=0;" edge="1" parent="1" source="i-aHLIUqa0NCSRjYnD6V-1" target="i-aHLIUqa0NCSRjYnD6V-3">
          <mxGeometry relative="1" as="geometry" />
        </mxCell>
        <mxCell id="i-aHLIUqa0NCSRjYnD6V-30" style="edgeStyle=orthogonalEdgeStyle;rounded=0;orthogonalLoop=1;jettySize=auto;html=1;exitX=0.5;exitY=1;exitDx=0;exitDy=0;entryX=0.5;entryY=0;entryDx=0;entryDy=0;" edge="1" parent="1" source="i-aHLIUqa0NCSRjYnD6V-1" target="i-aHLIUqa0NCSRjYnD6V-15">
          <mxGeometry relative="1" as="geometry" />
        </mxCell>
        <mxCell id="i-aHLIUqa0NCSRjYnD6V-1" value="0.1&lt;br&gt;Register" style="ellipse;whiteSpace=wrap;html=1;aspect=fixed;fontStyle=1" vertex="1" parent="1">
          <mxGeometry x="460" y="90" width="80" height="80" as="geometry" />
        </mxCell>
        <mxCell id="i-aHLIUqa0NCSRjYnD6V-4" style="edgeStyle=orthogonalEdgeStyle;rounded=0;orthogonalLoop=1;jettySize=auto;html=1;exitX=1;exitY=0;exitDx=0;exitDy=0;entryX=0;entryY=0.5;entryDx=0;entryDy=0;" edge="1" parent="1" source="i-aHLIUqa0NCSRjYnD6V-3" target="i-aHLIUqa0NCSRjYnD6V-1">
          <mxGeometry relative="1" as="geometry">
            <Array as="points">
              <mxPoint x="240" y="270" />
              <mxPoint x="240" y="130" />
            </Array>
          </mxGeometry>
        </mxCell>
        <mxCell id="i-aHLIUqa0NCSRjYnD6V-17" style="edgeStyle=orthogonalEdgeStyle;rounded=0;orthogonalLoop=1;jettySize=auto;html=1;exitX=1;exitY=0.25;exitDx=0;exitDy=0;" edge="1" parent="1" source="i-aHLIUqa0NCSRjYnD6V-3">
          <mxGeometry relative="1" as="geometry">
            <mxPoint x="460" y="285" as="targetPoint" />
          </mxGeometry>
        </mxCell>
        <mxCell id="i-aHLIUqa0NCSRjYnD6V-35" style="edgeStyle=orthogonalEdgeStyle;rounded=0;orthogonalLoop=1;jettySize=auto;html=1;exitX=0.75;exitY=1;exitDx=0;exitDy=0;entryX=0;entryY=0.5;entryDx=0;entryDy=0;" edge="1" parent="1" source="i-aHLIUqa0NCSRjYnD6V-3" target="i-aHLIUqa0NCSRjYnD6V-29">
          <mxGeometry relative="1" as="geometry" />
        </mxCell>
        <mxCell id="i-aHLIUqa0NCSRjYnD6V-45" style="edgeStyle=orthogonalEdgeStyle;rounded=0;orthogonalLoop=1;jettySize=auto;html=1;exitX=0.25;exitY=1;exitDx=0;exitDy=0;entryX=0;entryY=0.5;entryDx=0;entryDy=0;" edge="1" parent="1" source="i-aHLIUqa0NCSRjYnD6V-3" target="i-aHLIUqa0NCSRjYnD6V-44">
          <mxGeometry relative="1" as="geometry" />
        </mxCell>
        <mxCell id="i-aHLIUqa0NCSRjYnD6V-3" value="User&lt;span&gt;s&lt;/span&gt;" style="rounded=0;whiteSpace=wrap;html=1;fontStyle=1" vertex="1" parent="1">
          <mxGeometry x="180" y="270" width="120" height="60" as="geometry" />
        </mxCell>
        <mxCell id="i-aHLIUqa0NCSRjYnD6V-5" value="D1" style="html=1;dashed=0;whiteSpace=wrap;shape=mxgraph.dfd.dataStoreID;align=left;spacingLeft=3;points=[[0,0],[0.5,0],[1,0],[0,0.5],[1,0.5],[0,1],[0.5,1],[1,1]];" vertex="1" parent="1">
          <mxGeometry x="680" y="170" width="100" height="30" as="geometry" />
        </mxCell>
        <mxCell id="i-aHLIUqa0NCSRjYnD6V-6" value="Credential" style="text;html=1;align=center;verticalAlign=middle;resizable=0;points=[];autosize=1;strokeColor=none;fillColor=none;fontStyle=1" vertex="1" parent="1">
          <mxGeometry x="710" y="170" width="80" height="30" as="geometry" />
        </mxCell>
        <mxCell id="i-aHLIUqa0NCSRjYnD6V-7" style="edgeStyle=orthogonalEdgeStyle;rounded=0;orthogonalLoop=1;jettySize=auto;html=1;exitX=1;exitY=0.5;exitDx=0;exitDy=0;entryX=0.227;entryY=-0.03;entryDx=0;entryDy=0;entryPerimeter=0;" edge="1" parent="1" source="i-aHLIUqa0NCSRjYnD6V-1" target="i-aHLIUqa0NCSRjYnD6V-6">
          <mxGeometry relative="1" as="geometry" />
        </mxCell>
        <mxCell id="i-aHLIUqa0NCSRjYnD6V-8" value="Request to Registration" style="text;html=1;align=center;verticalAlign=middle;resizable=0;points=[];autosize=1;strokeColor=none;fillColor=none;fontStyle=1" vertex="1" parent="1">
          <mxGeometry x="295" y="100" width="160" height="30" as="geometry" />
        </mxCell>
        <mxCell id="i-aHLIUqa0NCSRjYnD6V-9" value="Check for Registration" style="text;html=1;align=center;verticalAlign=middle;resizable=0;points=[];autosize=1;strokeColor=none;fillColor=none;fontStyle=1" vertex="1" parent="1">
          <mxGeometry x="545" y="100" width="150" height="30" as="geometry" />
        </mxCell>
        <mxCell id="i-aHLIUqa0NCSRjYnD6V-10" value="" style="endArrow=classic;html=1;rounded=0;entryX=1;entryY=1;entryDx=0;entryDy=0;" edge="1" parent="1" target="i-aHLIUqa0NCSRjYnD6V-1">
          <mxGeometry width="50" height="50" relative="1" as="geometry">
            <mxPoint x="710" y="170" as="sourcePoint" />
            <mxPoint x="540" y="150" as="targetPoint" />
            <Array as="points">
              <mxPoint x="710" y="160" />
            </Array>
          </mxGeometry>
        </mxCell>
        <mxCell id="i-aHLIUqa0NCSRjYnD6V-12" value="Response Back" style="text;html=1;align=center;verticalAlign=middle;resizable=0;points=[];autosize=1;strokeColor=none;fillColor=none;fontStyle=1" vertex="1" parent="1">
          <mxGeometry x="565" y="160" width="110" height="30" as="geometry" />
        </mxCell>
        <mxCell id="i-aHLIUqa0NCSRjYnD6V-14" value="Accept/ Reject" style="text;html=1;align=center;verticalAlign=middle;resizable=0;points=[];autosize=1;strokeColor=none;fillColor=none;fontStyle=1" vertex="1" parent="1">
          <mxGeometry x="300" y="160" width="110" height="30" as="geometry" />
        </mxCell>
        <mxCell id="i-aHLIUqa0NCSRjYnD6V-15" value="0.2&lt;br&gt;Login" style="ellipse;whiteSpace=wrap;html=1;aspect=fixed;fontStyle=1" vertex="1" parent="1">
          <mxGeometry x="460" y="250" width="80" height="80" as="geometry" />
        </mxCell>
        <mxCell id="i-aHLIUqa0NCSRjYnD6V-18" style="edgeStyle=orthogonalEdgeStyle;rounded=0;orthogonalLoop=1;jettySize=auto;html=1;exitX=1;exitY=0.5;exitDx=0;exitDy=0;entryX=0.2;entryY=1;entryDx=0;entryDy=0;entryPerimeter=0;" edge="1" parent="1" source="i-aHLIUqa0NCSRjYnD6V-15" target="i-aHLIUqa0NCSRjYnD6V-5">
          <mxGeometry relative="1" as="geometry" />
        </mxCell>
        <mxCell id="i-aHLIUqa0NCSRjYnD6V-21" value="" style="endArrow=classic;html=1;rounded=0;exitX=0.374;exitY=1;exitDx=0;exitDy=0;exitPerimeter=0;entryX=1;entryY=1;entryDx=0;entryDy=0;" edge="1" parent="1" source="i-aHLIUqa0NCSRjYnD6V-6" target="i-aHLIUqa0NCSRjYnD6V-15">
          <mxGeometry width="50" height="50" relative="1" as="geometry">
            <mxPoint x="560" y="290" as="sourcePoint" />
            <mxPoint x="570" y="330" as="targetPoint" />
            <Array as="points">
              <mxPoint x="740" y="318" />
            </Array>
          </mxGeometry>
        </mxCell>
        <mxCell id="i-aHLIUqa0NCSRjYnD6V-22" value="Check for login" style="text;html=1;align=center;verticalAlign=middle;resizable=0;points=[];autosize=1;strokeColor=none;fillColor=none;fontStyle=1" vertex="1" parent="1">
          <mxGeometry x="560" y="260" width="110" height="30" as="geometry" />
        </mxCell>
        <mxCell id="i-aHLIUqa0NCSRjYnD6V-23" value="Response" style="text;html=1;align=center;verticalAlign=middle;resizable=0;points=[];autosize=1;strokeColor=none;fillColor=none;fontStyle=1" vertex="1" parent="1">
          <mxGeometry x="595" y="320" width="80" height="30" as="geometry" />
        </mxCell>
        <mxCell id="i-aHLIUqa0NCSRjYnD6V-24" value="Request for login" style="text;html=1;align=center;verticalAlign=middle;resizable=0;points=[];autosize=1;strokeColor=none;fillColor=none;fontStyle=1" vertex="1" parent="1">
          <mxGeometry x="315" y="260" width="120" height="30" as="geometry" />
        </mxCell>
        <mxCell id="i-aHLIUqa0NCSRjYnD6V-26" value="" style="endArrow=classic;html=1;rounded=0;entryX=1;entryY=0.805;entryDx=0;entryDy=0;exitX=0;exitY=1;exitDx=0;exitDy=0;entryPerimeter=0;" edge="1" parent="1" source="i-aHLIUqa0NCSRjYnD6V-15" target="i-aHLIUqa0NCSRjYnD6V-3">
          <mxGeometry width="50" height="50" relative="1" as="geometry">
            <mxPoint x="460" y="300" as="sourcePoint" />
            <mxPoint x="510" y="250" as="targetPoint" />
          </mxGeometry>
        </mxCell>
        <mxCell id="i-aHLIUqa0NCSRjYnD6V-28" value="Accept/ Reject" style="text;html=1;align=center;verticalAlign=middle;resizable=0;points=[];autosize=1;strokeColor=none;fillColor=none;fontStyle=1" vertex="1" parent="1">
          <mxGeometry x="325" y="320" width="110" height="30" as="geometry" />
        </mxCell>
        <mxCell id="i-aHLIUqa0NCSRjYnD6V-33" value="" style="edgeStyle=orthogonalEdgeStyle;rounded=0;orthogonalLoop=1;jettySize=auto;html=1;" edge="1" parent="1" source="i-aHLIUqa0NCSRjYnD6V-29" target="i-aHLIUqa0NCSRjYnD6V-31">
          <mxGeometry relative="1" as="geometry" />
        </mxCell>
        <mxCell id="i-aHLIUqa0NCSRjYnD6V-42" style="edgeStyle=orthogonalEdgeStyle;rounded=0;orthogonalLoop=1;jettySize=auto;html=1;exitX=0;exitY=1;exitDx=0;exitDy=0;entryX=0.5;entryY=1;entryDx=0;entryDy=0;" edge="1" parent="1" source="i-aHLIUqa0NCSRjYnD6V-29" target="i-aHLIUqa0NCSRjYnD6V-3">
          <mxGeometry relative="1" as="geometry" />
        </mxCell>
        <mxCell id="i-aHLIUqa0NCSRjYnD6V-29" value="0.3&lt;br&gt;View Contacts" style="ellipse;whiteSpace=wrap;html=1;aspect=fixed;fontStyle=1" vertex="1" parent="1">
          <mxGeometry x="475" y="480" width="80" height="80" as="geometry" />
        </mxCell>
        <mxCell id="i-aHLIUqa0NCSRjYnD6V-31" value="D2" style="html=1;dashed=0;whiteSpace=wrap;shape=mxgraph.dfd.dataStoreID;align=left;spacingLeft=3;points=[[0,0],[0.5,0],[1,0],[0,0.5],[1,0.5],[0,1],[0.5,1],[1,1]];" vertex="1" parent="1">
          <mxGeometry x="710" y="505" width="100" height="30" as="geometry" />
        </mxCell>
        <mxCell id="i-aHLIUqa0NCSRjYnD6V-32" value="Contacts_db" style="text;html=1;align=center;verticalAlign=middle;resizable=0;points=[];autosize=1;strokeColor=none;fillColor=none;fontStyle=1" vertex="1" parent="1">
          <mxGeometry x="730" y="505" width="100" height="30" as="geometry" />
        </mxCell>
        <mxCell id="i-aHLIUqa0NCSRjYnD6V-37" value="Request to View Contacts" style="text;html=1;align=center;verticalAlign=middle;resizable=0;points=[];autosize=1;strokeColor=none;fillColor=none;fontStyle=1" vertex="1" parent="1">
          <mxGeometry x="300" y="490" width="170" height="30" as="geometry" />
        </mxCell>
        <mxCell id="i-aHLIUqa0NCSRjYnD6V-39" value="Receive Request Contacts" style="text;html=1;align=center;verticalAlign=middle;resizable=0;points=[];autosize=1;strokeColor=none;fillColor=none;fontStyle=1" vertex="1" parent="1">
          <mxGeometry x="545" y="490" width="170" height="30" as="geometry" />
        </mxCell>
        <mxCell id="i-aHLIUqa0NCSRjYnD6V-40" value="" style="endArrow=classic;html=1;rounded=0;entryX=1;entryY=1;entryDx=0;entryDy=0;exitX=0.102;exitY=1;exitDx=0;exitDy=0;exitPerimeter=0;" edge="1" parent="1" source="i-aHLIUqa0NCSRjYnD6V-31" target="i-aHLIUqa0NCSRjYnD6V-29">
          <mxGeometry width="50" height="50" relative="1" as="geometry">
            <mxPoint x="710" y="540" as="sourcePoint" />
            <mxPoint x="700" y="450" as="targetPoint" />
            <Array as="points">
              <mxPoint x="720" y="548" />
            </Array>
          </mxGeometry>
        </mxCell>
        <mxCell id="i-aHLIUqa0NCSRjYnD6V-41" value="Fetch Contacts" style="text;html=1;align=center;verticalAlign=middle;resizable=0;points=[];autosize=1;strokeColor=none;fillColor=none;fontStyle=1" vertex="1" parent="1">
          <mxGeometry x="580" y="550" width="110" height="30" as="geometry" />
        </mxCell>
        <mxCell id="i-aHLIUqa0NCSRjYnD6V-43" value="Show Contacts" style="text;html=1;align=center;verticalAlign=middle;resizable=0;points=[];autosize=1;strokeColor=none;fillColor=none;fontStyle=1" vertex="1" parent="1">
          <mxGeometry x="325" y="550" width="110" height="30" as="geometry" />
        </mxCell>
        <mxCell id="i-aHLIUqa0NCSRjYnD6V-56" style="edgeStyle=orthogonalEdgeStyle;rounded=0;orthogonalLoop=1;jettySize=auto;html=1;entryX=0.5;entryY=1;entryDx=0;entryDy=0;" edge="1" parent="1" source="i-aHLIUqa0NCSRjYnD6V-44" target="i-aHLIUqa0NCSRjYnD6V-29">
          <mxGeometry relative="1" as="geometry" />
        </mxCell>
        <mxCell id="i-aHLIUqa0NCSRjYnD6V-44" value="0.4&lt;br&gt;Manage Contacts" style="ellipse;whiteSpace=wrap;html=1;aspect=fixed;fontStyle=1" vertex="1" parent="1">
          <mxGeometry x="475" y="670" width="80" height="80" as="geometry" />
        </mxCell>
        <mxCell id="i-aHLIUqa0NCSRjYnD6V-46" value="Apply for new contact" style="text;html=1;align=center;verticalAlign=middle;resizable=0;points=[];autosize=1;strokeColor=none;fillColor=none;fontStyle=1" vertex="1" parent="1">
          <mxGeometry x="305" y="685" width="150" height="30" as="geometry" />
        </mxCell>
        <mxCell id="i-aHLIUqa0NCSRjYnD6V-47" value="Admin" style="rounded=0;whiteSpace=wrap;html=1;fontStyle=1" vertex="1" parent="1">
          <mxGeometry x="890" y="410" width="120" height="60" as="geometry" />
        </mxCell>
        <mxCell id="i-aHLIUqa0NCSRjYnD6V-50" value="" style="endArrow=classic;html=1;rounded=0;entryX=0;entryY=0.75;entryDx=0;entryDy=0;exitX=0.255;exitY=0.943;exitDx=0;exitDy=0;exitPerimeter=0;" edge="1" parent="1" source="i-aHLIUqa0NCSRjYnD6V-15" target="i-aHLIUqa0NCSRjYnD6V-47">
          <mxGeometry width="50" height="50" relative="1" as="geometry">
            <mxPoint x="610" y="340" as="sourcePoint" />
            <mxPoint x="660" y="290" as="targetPoint" />
            <Array as="points">
              <mxPoint x="480" y="455" />
            </Array>
          </mxGeometry>
        </mxCell>
        <mxCell id="i-aHLIUqa0NCSRjYnD6V-52" value="" style="endArrow=classic;html=1;rounded=0;entryX=0.5;entryY=1;entryDx=0;entryDy=0;exitX=0;exitY=0;exitDx=0;exitDy=0;" edge="1" parent="1" source="i-aHLIUqa0NCSRjYnD6V-47" target="i-aHLIUqa0NCSRjYnD6V-15">
          <mxGeometry width="50" height="50" relative="1" as="geometry">
            <mxPoint x="610" y="420" as="sourcePoint" />
            <mxPoint x="660" y="370" as="targetPoint" />
            <Array as="points">
              <mxPoint x="500" y="410" />
            </Array>
          </mxGeometry>
        </mxCell>
        <mxCell id="i-aHLIUqa0NCSRjYnD6V-53" value="Request for login" style="text;html=1;align=center;verticalAlign=middle;resizable=0;points=[];autosize=1;strokeColor=none;fillColor=none;fontStyle=1" vertex="1" parent="1">
          <mxGeometry x="630" y="380" width="120" height="30" as="geometry" />
        </mxCell>
        <mxCell id="i-aHLIUqa0NCSRjYnD6V-54" value="Accept/ Reject" style="text;html=1;align=center;verticalAlign=middle;resizable=0;points=[];autosize=1;strokeColor=none;fillColor=none;fontStyle=1" vertex="1" parent="1">
          <mxGeometry x="630" y="430" width="110" height="30" as="geometry" />
        </mxCell>
        <mxCell id="i-aHLIUqa0NCSRjYnD6V-57" style="edgeStyle=orthogonalEdgeStyle;rounded=0;orthogonalLoop=1;jettySize=auto;html=1;exitX=1;exitY=0.5;exitDx=0;exitDy=0;entryX=0.153;entryY=1.028;entryDx=0;entryDy=0;entryPerimeter=0;" edge="1" parent="1" source="i-aHLIUqa0NCSRjYnD6V-44" target="i-aHLIUqa0NCSRjYnD6V-47">
          <mxGeometry relative="1" as="geometry" />
        </mxCell>
        <mxCell id="i-aHLIUqa0NCSRjYnD6V-59" value="" style="endArrow=classic;html=1;rounded=0;entryX=1;entryY=1;entryDx=0;entryDy=0;exitX=0.5;exitY=1;exitDx=0;exitDy=0;" edge="1" parent="1" source="i-aHLIUqa0NCSRjYnD6V-47" target="i-aHLIUqa0NCSRjYnD6V-44">
          <mxGeometry width="50" height="50" relative="1" as="geometry">
            <mxPoint x="960" y="678" as="sourcePoint" />
            <mxPoint x="760" y="610" as="targetPoint" />
            <Array as="points">
              <mxPoint x="950" y="740" />
            </Array>
          </mxGeometry>
        </mxCell>
        <mxCell id="i-aHLIUqa0NCSRjYnD6V-60" value="Receive new contact" style="text;html=1;align=center;verticalAlign=middle;resizable=0;points=[];autosize=1;strokeColor=none;fillColor=none;fontStyle=1" vertex="1" parent="1">
          <mxGeometry x="580" y="685" width="140" height="30" as="geometry" />
        </mxCell>
        <mxCell id="i-aHLIUqa0NCSRjYnD6V-61" value="Approve/decline new contact" style="text;html=1;align=center;verticalAlign=middle;resizable=0;points=[];autosize=1;strokeColor=none;fillColor=none;fontStyle=1" vertex="1" parent="1">
          <mxGeometry x="565" y="740" width="190" height="30" as="geometry" />
        </mxCell>
        <mxCell id="i-aHLIUqa0NCSRjYnD6V-62" style="edgeStyle=orthogonalEdgeStyle;rounded=0;orthogonalLoop=1;jettySize=auto;html=1;exitX=0.05;exitY=0.725;exitDx=0;exitDy=0;entryX=0.075;entryY=1.05;entryDx=0;entryDy=0;entryPerimeter=0;exitPerimeter=0;" edge="1" parent="1" source="i-aHLIUqa0NCSRjYnD6V-44">
          <mxGeometry relative="1" as="geometry">
            <mxPoint x="486.7157287525382" y="675.2842712474618" as="sourcePoint" />
            <mxPoint x="189" y="330" as="targetPoint" />
          </mxGeometry>
        </mxCell>
        <mxCell id="i-aHLIUqa0NCSRjYnD6V-63" value="Receive Response(approve/decline)" style="text;html=1;align=center;verticalAlign=middle;resizable=0;points=[];autosize=1;strokeColor=none;fillColor=none;fontStyle=1" vertex="1" parent="1">
          <mxGeometry x="250" y="730" width="230" height="30" as="geometry" />
        </mxCell>
        <mxCell id="i-aHLIUqa0NCSRjYnD6V-67" value="" style="endArrow=classic;html=1;rounded=0;entryX=0.098;entryY=0.985;entryDx=0;entryDy=0;entryPerimeter=0;exitX=0.687;exitY=0.96;exitDx=0;exitDy=0;exitPerimeter=0;" edge="1" parent="1" source="i-aHLIUqa0NCSRjYnD6V-29" target="i-aHLIUqa0NCSRjYnD6V-32">
          <mxGeometry width="50" height="50" relative="1" as="geometry">
            <mxPoint x="531.5200000000001" y="572.6800000000001" as="sourcePoint" />
            <mxPoint x="740" y="550.0000000000001" as="targetPoint" />
            <Array as="points">
              <mxPoint x="530" y="611" />
              <mxPoint x="739.96" y="611" />
            </Array>
          </mxGeometry>
        </mxCell>
        <mxCell id="i-aHLIUqa0NCSRjYnD6V-68" value="Insert new contact" style="text;html=1;align=center;verticalAlign=middle;resizable=0;points=[];autosize=1;strokeColor=none;fillColor=none;fontStyle=1" vertex="1" parent="1">
          <mxGeometry x="580" y="610" width="130" height="30" as="geometry" />
        </mxCell>
      </root>
    </mxGraphModel>
  </diagram>
</mxfile>
